<?xml version="1.0" encoding="UTF-8" standalone="no"?>
<svg width="344px" height="110px" viewBox="0 0 344 110" version="1.1" xmlns="http://www.w3.org/2000/svg" xmlns:xlink="http://www.w3.org/1999/xlink" xmlns:sketch="http://www.bohemiancoding.com/sketch/ns">
    <!-- Generator: Sketch 3.4.2 (15855) - http://www.bohemiancoding.com/sketch -->
    <title>Page 1</title>
    <desc>Created with Sketch.</desc>
    <defs>
        <path id="path-1" d="M0,0.361 L343.104,0.361 L343.104,110 L0,110"></path>
        <path id="path-3" d="M0,0.361 L343.104,0.361 L343.104,110 L0,110"></path>
    </defs>
    <g id="Page-1" stroke="none" stroke-width="1" fill="none" fill-rule="evenodd" sketch:type="MSPage">
        <g sketch:type="MSLayerGroup">
            <path d="M317.4053,93.9771 L317.4053,93.9771 C316.3053,92.1321 314.1043,89.5231 309.7453,87.0271 C309.6613,86.9701 309.5913,86.9411 309.5163,86.8841 C309.4683,86.8441 309.4183,86.8271 309.3623,86.7961 C309.2103,86.7091 309.0703,86.6421 308.9183,86.5541 C308.8823,86.5331 308.8423,86.5241 308.8163,86.4891 L308.8073,86.4891 C308.5533,86.3621 308.2913,86.2171 308.0103,86.0861 C298.4533,80.7851 286.0333,79.7951 286.0333,79.7951 L286.0393,79.7951 C284.1173,79.5761 282.3043,79.4231 280.7633,79.3061 C278.8013,79.2261 276.4253,79.1431 274.0643,79.1031 L274.0643,79.0981 C261.4823,78.8581 243.6303,79.4461 219.2533,82.1341 C218.8893,82.1811 218.5313,82.2251 218.2033,82.2861 C218.1803,82.2951 218.1543,82.3041 218.1203,82.3041 C216.3773,82.5971 215.2703,83.0081 214.6083,83.3941 C214.3723,83.5031 214.1713,83.6301 213.9693,83.8101 C213.6493,84.0731 213.5583,84.2611 213.5583,84.2611 C213.2253,84.7151 213.0073,85.2761 212.9943,85.8891 C212.9943,86.2171 213.0503,86.5381 213.1493,86.8311 C213.2083,86.9881 213.7323,88.2661 216.0013,88.4941 C216.7113,88.5601 217.6203,88.5781 218.7853,88.5031 C219.2183,88.4781 219.6863,88.4331 220.2033,88.3901 C220.3793,88.3671 220.5673,88.3591 220.7233,88.3491 C220.9913,88.3231 221.2943,88.2801 221.6003,88.2751 C244.9683,85.7591 268.7853,84.7601 285.6273,87.9251 C286.9963,88.1621 288.4983,88.4781 290.0303,88.8841 C290.0443,88.8931 290.0483,88.8931 290.0523,88.8931 C291.2043,89.2121 292.3853,89.5751 293.5193,90.0091 L293.5293,90.0091 C293.5683,90.0271 293.6033,90.0321 293.6553,90.0621 C294.5403,90.3951 295.3003,90.7271 295.9103,91.0501 C296.9783,91.5991 297.9553,92.2191 298.7703,92.9121 C300.5543,94.5921 301.0893,95.8791 301.0943,96.8041 C301.0943,96.8431 301.0943,96.8911 301.0893,96.9271 L301.0893,96.9831 C301.0453,97.3591 300.9303,97.6831 300.7213,97.9691 C300.3013,98.4841 299.6483,98.7251 298.8563,98.7171 L298.8693,98.7171 C298.8693,98.7171 297.2983,98.6861 297.6613,100.9501 C298.4753,106.0141 302.8243,109.9121 308.1253,109.9981 C314.0873,110.0901 318.9813,105.7001 319.0743,99.7411 L319.0743,99.4571 C319.0783,99.3511 319.0833,99.2281 319.0833,99.1021 C318.9953,96.3791 317.4053,93.9771 317.4053,93.9771" id="Fill-1" fill="#FFFFFF" sketch:type="MSShapeGroup"></path>
            <path d="M89.7642,73.3199 C89.8252,73.3339 89.8862,73.3639 89.9612,73.3779 C90.1142,73.4179 90.2892,73.4519 90.4862,73.4779 L90.4952,73.4779 C90.5562,73.4779 90.6262,73.4779 90.6962,73.4869 C93.1482,73.7019 98.2882,73.8409 98.8792,73.8409 L98.8792,73.8459 L105.7002,73.8459 C111.1632,73.7109 112.0002,72.1049 112.1132,71.5219 C112.2622,70.0199 111.0192,69.5739 110.5862,69.4509 C108.5532,68.9779 107.8712,67.9119 107.8712,67.9119 C107.6432,67.5839 107.5202,67.1599 107.4812,66.7249 C107.4552,66.2089 107.5302,65.4989 107.7312,64.7239 L113.1022,43.0889 C113.3002,42.3709 114.9022,36.8279 120.1252,35.3489 C120.6112,35.2309 121.0752,35.1659 121.5212,35.1659 C122.3222,35.1659 122.9482,35.4279 123.3592,35.9269 C123.7852,36.4309 124.2092,36.9599 124.6602,37.5469 C125.0892,38.1289 125.6362,38.6679 126.3022,39.1669 C126.9682,39.6739 127.9262,39.9279 129.1912,39.9279 C130.1012,39.9279 130.9552,39.7609 131.7612,39.4469 C132.5662,39.1179 133.2842,38.6369 133.9102,38.0019 C134.5192,37.3839 135.0002,36.6229 135.3562,35.7469 C135.7142,34.8719 135.8892,33.8699 135.8892,32.7389 C135.8892,30.9929 135.3032,29.5689 134.1432,28.4709 C132.9692,27.3639 131.1912,26.8119 128.7972,26.8119 C126.5992,26.8119 124.3272,27.3379 121.9852,28.3619 C120.8392,28.8779 119.7522,29.5959 118.7102,30.4199 L118.7102,30.3979 C118.6972,30.4199 118.6792,30.4369 118.6672,30.4409 C118.6142,30.4809 118.5622,30.5249 118.5052,30.5679 C116.0932,32.4949 116.2722,30.9629 116.4122,30.3669 L116.4612,30.2049 L116.4612,30.2219 C116.4612,30.2219 116.9722,28.2169 114.6302,27.8839 C114.3462,27.8369 114.0262,27.8539 113.6762,27.8889 L113.6672,27.8889 C113.6282,27.8889 113.5932,27.8969 113.5572,27.8969 C112.4762,28.0949 110.1042,29.2369 108.8032,29.8859 L107.9272,30.3399 L107.7272,30.4409 L104.6002,32.0349 L103.8002,32.4509 L101.2952,33.7249 C98.3092,35.3359 97.4862,36.3859 97.1722,36.8119 C97.1322,36.8629 97.0962,36.9159 97.0612,36.9819 C97.0442,37.0169 97.0272,37.0349 97.0222,37.0349 L97.0272,37.0349 C96.9572,37.1829 96.9212,37.3539 96.9212,37.5279 C96.9212,37.8619 97.0612,38.1589 97.2892,38.3749 C97.3722,38.4609 97.7052,38.7119 98.2882,38.7149 C98.7522,38.7339 99.4692,38.6939 100.6042,38.5099 C100.7002,38.5099 100.7832,38.4919 100.8582,38.4749 C100.8702,38.4749 100.8882,38.4749 100.8922,38.4609 L100.9452,38.4609 C101.6192,38.3089 102.2012,38.6939 101.9562,39.8669 L101.7202,40.8749 L100.3932,46.1929 L99.2412,50.8559 L95.7922,64.8259 C95.6522,65.3689 95.4902,65.8289 95.3062,66.2309 L95.3062,66.2339 C95.0662,66.8219 93.9362,68.9779 91.0112,69.3769 C89.3272,69.6119 88.6872,70.7379 88.6602,71.7359 C88.6962,72.1779 88.8712,72.8919 89.7642,73.3199" id="Fill-3" fill="#FFFFFF" sketch:type="MSShapeGroup"></path>
            <path d="M70.103,55.0533 L70.103,55.0803 L68.999,59.5933 L68.891,60.0523 C68.563,61.1973 67.441,64.1913 64.214,65.8413 C63.698,66.0813 63.181,66.3093 62.656,66.5063 C60.892,67.1603 59.281,67.5043 57.828,67.5043 C56.006,67.5043 54.587,67.0543 53.559,66.1863 C52.517,65.3013 51.997,64.0243 51.997,62.3423 C51.997,58.9233 53.629,56.2633 56.895,54.3843 C59.434,52.9223 62.835,51.9803 67.1,51.5433 C67.152,51.5433 67.231,51.5293 67.34,51.5433 L67.349,51.5433 C67.861,51.5433 68.326,51.6693 68.741,51.9023 C69.065,52.0853 69.381,52.3263 69.63,52.7163 C69.971,53.1843 70.173,53.7753 70.173,54.4143 C70.173,54.6193 70.147,54.8433 70.103,55.0533 L70.103,55.0533 Z M85.106,41.9603 C85.82,38.9643 85.842,36.4873 85.154,34.5213 C84.484,32.5523 83.373,31.0053 81.809,29.8373 C80.251,28.6903 78.416,27.8843 76.294,27.4203 C74.183,26.9603 72.042,26.7243 69.854,26.7243 C66.5,26.7243 63.483,27.0263 60.839,27.6133 C58.186,28.2173 55.94,29.0323 54.088,30.0653 C52.246,31.1063 50.836,32.3373 49.868,33.7513 C48.897,35.1653 48.406,36.7183 48.406,38.4093 C48.406,39.1323 48.533,39.7533 48.774,40.2563 C49.015,40.7733 49.339,41.1973 49.742,41.5483 C50.14,41.8853 50.604,42.1523 51.103,42.3193 C51.61,42.4803 52.123,42.5543 52.674,42.5543 C54.097,42.5543 55.428,42.1383 56.663,41.2993 C57.897,40.4483 59.023,39.0953 60.051,37.2183 C61.093,35.2353 62.297,33.7993 63.707,32.9103 C65.095,32.0173 66.763,31.5753 68.693,31.5753 C69.897,31.5753 70.909,31.7233 71.736,32.0173 C72.555,32.3233 73.181,32.8143 73.61,33.5283 C74.026,34.2373 74.227,35.1793 74.206,36.3513 C74.192,37.5253 73.977,38.9643 73.553,40.6853 L72.97,43.1323 C72.126,46.2323 69.639,46.8143 68.632,46.9283 C65.051,47.1073 61.715,47.4983 58.629,48.1013 C54.561,48.8983 51.072,50.0323 48.139,51.5433 C45.206,53.0353 42.942,54.9053 41.318,57.1283 C39.703,59.3493 38.884,61.9233 38.884,64.8263 C38.884,66.3743 39.178,67.7543 39.765,68.9523 C40.346,70.1563 41.169,71.1853 42.242,72.0153 C43.315,72.8653 44.58,73.5003 46.051,73.9553 C47.526,74.3983 49.154,74.6203 50.932,74.6203 C52.578,74.6203 54.146,74.4623 55.621,74.1253 C57.083,73.7893 58.497,73.3503 59.841,72.8133 C61.177,72.2703 62.455,71.6263 63.65,70.9083 C64.228,70.5583 64.788,70.2083 65.353,69.8263 L65.353,69.8353 C65.353,69.8353 66.671,69.0433 67.297,70.4573 L67.45,70.8783 L67.45,70.8673 C67.498,71.0393 67.559,71.2013 67.63,71.3673 C67.984,72.1133 68.483,72.7263 69.131,73.1893 C69.787,73.6353 70.559,73.9863 71.469,74.1963 C72.371,74.4143 73.395,74.5293 74.529,74.5293 C76.433,74.5293 78.115,74.3153 79.555,73.9203 C80.82,73.5743 82.05,73.0663 83.254,72.4233 C83.99,71.9983 84.301,71.5903 84.423,71.3243 C84.55,71.0963 84.607,70.8293 84.607,70.5403 C84.607,70.2343 84.541,69.9413 84.419,69.6913 L84.419,69.6873 C84.41,69.6693 84.392,69.6433 84.379,69.6333 C84.366,69.6213 84.362,69.6033 84.349,69.5743 C84.301,69.5123 84.27,69.4423 84.217,69.3763 C84.2,69.3503 84.182,69.3273 84.165,69.3113 C84.13,69.2713 84.104,69.2483 84.068,69.2053 C84.051,69.1793 84.029,69.1653 84.003,69.1493 C83.959,69.1043 83.915,69.0563 83.867,69.0333 C83.836,68.9993 83.801,68.9693 83.767,68.9523 C83.731,68.9213 83.71,68.9043 83.67,68.8953 C83.644,68.8723 83.605,68.8373 83.578,68.8373 C83.538,68.8323 83.517,68.7983 83.473,68.7813 C83.403,68.7683 83.346,68.7333 83.285,68.7193 C83.254,68.7063 83.237,68.6933 83.206,68.6933 C83.154,68.6933 83.11,68.6843 83.057,68.6713 C83.031,68.6533 82.995,68.6533 82.97,68.6533 C82.899,68.6323 82.825,68.6273 82.751,68.6273 L82.747,68.6273 L82.737,68.6273 C82.611,68.6273 82.488,68.6323 82.361,68.6713 C82.024,68.7333 81.696,68.7813 81.424,68.7813 C79.481,68.7813 78.898,67.2593 79.673,64.2303 L85.106,41.9603 Z" id="Fill-5" fill="#FFFFFF" sketch:type="MSShapeGroup"></path>
            <path d="M293.2305,55.0533 C293.2225,55.0623 293.2225,55.0803 293.2225,55.0803 L292.1325,59.5933 L292.0135,60.0523 C291.6995,61.1973 290.5605,64.1913 287.3365,65.8413 C286.8215,66.0813 286.3005,66.3093 285.7795,66.5063 C284.0105,67.1603 282.3955,67.5043 280.9475,67.5043 C279.1335,67.5043 277.7285,67.0543 276.6785,66.1863 C275.6355,65.3013 275.1155,64.0243 275.1155,62.3423 C275.1155,58.9233 276.7515,56.2633 280.0225,54.3843 C282.5485,52.9223 285.9585,51.9803 290.2185,51.5433 C290.2635,51.5433 290.3505,51.5293 290.4555,51.5433 L290.4775,51.5433 C290.9715,51.5433 291.4545,51.6693 291.8605,51.9023 C292.1805,52.0853 292.4865,52.3263 292.7465,52.7163 C293.0995,53.1843 293.2965,53.7753 293.2965,54.4143 C293.2965,54.6193 293.2755,54.8433 293.2305,55.0533 M304.9295,29.8373 C303.3705,28.6903 301.5445,27.8843 299.4165,27.4203 C297.2985,26.9603 295.1585,26.7243 292.9855,26.7243 C289.6195,26.7243 286.5985,27.0263 283.9545,27.6133 C281.3015,28.2173 279.0505,29.0323 277.2035,30.0653 C275.3605,31.1063 273.9555,32.3373 272.9875,33.7513 C272.0155,35.1653 271.5305,36.7183 271.5305,38.4093 C271.5305,39.1323 271.6435,39.7533 271.8835,40.2563 C272.1285,40.7733 272.4625,41.1973 272.8655,41.5483 C273.2585,41.8853 273.7185,42.1523 274.2275,42.3193 C274.7295,42.4803 275.2475,42.5543 275.7945,42.5543 C277.2215,42.5543 278.5515,42.1383 279.7775,41.2993 C281.0115,40.4483 282.1375,39.0953 283.1795,37.2183 C284.2085,35.2353 285.4335,33.7993 286.8215,32.9103 C288.2015,32.0173 289.8765,31.5753 291.8215,31.5753 C293.0165,31.5753 294.0285,31.7233 294.8595,32.0173 C295.6785,32.3233 296.3125,32.8143 296.7235,33.5283 C297.1535,34.2373 297.3415,35.1793 297.3195,36.3513 C297.3055,37.5253 297.0965,38.9643 296.6855,40.6853 L296.0945,43.1373 C295.2545,46.2323 292.7575,46.8143 291.7435,46.9283 C288.1615,47.1073 284.8305,47.4983 281.7485,48.1013 C277.6805,48.8983 274.1875,50.0323 271.2535,51.5433 C268.3335,53.0353 266.0565,54.9053 264.4505,57.1283 C262.8215,59.3493 262.0065,61.9233 262.0065,64.8263 C262.0065,66.3743 262.2965,67.7543 262.8835,68.9523 C263.4735,70.1563 264.2885,71.1853 265.3615,72.0153 C266.4235,72.8653 267.7085,73.5003 269.1785,73.9553 C270.6445,74.3983 272.2655,74.6203 274.0515,74.6203 C275.7025,74.6203 277.2735,74.4623 278.7355,74.1253 C280.2035,73.7893 281.6215,73.3503 282.9595,72.8133 C284.3005,72.2703 285.5785,71.6263 286.7695,70.9083 C287.3365,70.5583 287.9035,70.2083 288.4685,69.8263 L288.4685,69.8353 C288.4685,69.8353 289.7895,69.0433 290.4205,70.4573 L290.5605,70.8783 L290.5605,70.8673 C290.6215,71.0393 290.6795,71.2013 290.7485,71.3673 C291.1115,72.1133 291.6115,72.7263 292.2585,73.1893 C292.9075,73.6353 293.6725,73.9863 294.5835,74.1963 C295.4855,74.4143 296.5095,74.5293 297.6535,74.5293 C299.5525,74.5293 301.2295,74.3153 302.6695,73.9203 C303.9435,73.5743 305.1695,73.0663 306.3735,72.4233 C307.0995,71.9983 307.4195,71.5903 307.5555,71.3243 C307.6645,71.0963 307.7215,70.8293 307.7215,70.5403 C307.7215,70.2343 307.6565,69.9413 307.5345,69.6913 L307.5345,69.6873 C307.5345,69.6693 307.5205,69.6433 307.5115,69.6333 C307.4945,69.6213 307.4815,69.6033 307.4595,69.5743 C307.4245,69.5123 307.3795,69.4423 307.3355,69.3763 C307.3155,69.3503 307.2965,69.3273 307.2795,69.3113 C307.2525,69.2713 307.2225,69.2483 307.2065,69.2053 C307.1695,69.1793 307.1535,69.1653 307.1305,69.1493 C307.0915,69.1043 307.0305,69.0563 306.9905,69.0333 C306.9565,68.9993 306.9255,68.9693 306.8855,68.9523 C306.8505,68.9213 306.8285,68.9043 306.7935,68.8953 C306.7585,68.8723 306.7285,68.8373 306.7015,68.8373 C306.6625,68.8323 306.6265,68.7983 306.5925,68.7813 C306.5275,68.7683 306.4685,68.7333 306.4135,68.7193 C306.3825,68.7063 306.3455,68.6933 306.3255,68.6933 C306.2635,68.6933 306.2375,68.6843 306.1735,68.6713 C306.1455,68.6533 306.1205,68.6533 306.0845,68.6533 C306.0275,68.6323 305.9485,68.6273 305.8735,68.6273 L305.8615,68.6273 L305.8555,68.6273 C305.7205,68.6273 305.5975,68.6323 305.4765,68.6713 C305.1435,68.7333 304.8105,68.7813 304.5435,68.7813 C302.5945,68.7813 302.0225,67.2593 302.7965,64.2303 L308.2255,41.9603 C308.9435,38.9643 308.9575,36.4873 308.2775,34.5213 C307.5995,32.5523 306.4795,31.0053 304.9295,29.8373" id="Fill-7" fill="#FFFFFF" sketch:type="MSShapeGroup"></path>
            <path d="M202.9551,80.9937 C201.7241,79.7207 200.2751,78.7497 198.5901,78.0537 C196.9041,77.3627 195.0691,77.0197 193.1001,77.0197 C191.3621,77.0197 189.7241,77.2687 188.2311,77.7997 C186.7181,78.3077 185.4131,79.0037 184.3171,79.8777 C183.2101,80.7547 182.3431,81.7667 181.7091,82.9427 C181.0831,84.1077 180.7631,85.3427 180.7631,86.6417 C180.7631,87.3957 180.9161,88.1357 181.2051,88.8137 C181.4941,89.4877 181.8891,90.0927 182.4281,90.6037 C182.9351,91.1267 183.5431,91.5377 184.2391,91.8267 C184.9321,92.1107 185.6961,92.2667 186.4891,92.2667 C187.4751,92.2667 188.2671,92.0797 188.8841,91.7207 C189.4881,91.3807 190.0051,90.9247 190.4251,90.3947 C190.8501,89.8507 191.2171,89.2867 191.5281,88.6657 C191.8301,88.0477 192.1631,87.4827 192.5391,86.9407 C192.9161,86.4107 193.3671,85.9647 193.8961,85.6007 C194.4311,85.2547 195.1351,85.0837 196.0161,85.0837 C197.5641,85.0837 198.8091,85.6847 199.7551,86.8957 C200.6861,88.1137 201.1591,89.7337 201.1591,91.7687 C201.1591,93.3277 200.8401,94.8037 200.2191,96.1957 C199.5821,97.5697 198.6681,98.7917 197.5001,99.8337 C196.3121,100.8667 194.8731,101.6977 193.2001,102.3057 C191.5231,102.9287 189.6321,103.2227 187.5591,103.2227 C184.8831,103.2227 182.5711,102.6317 180.6491,101.4127 C178.7231,100.1927 177.2301,98.5057 176.1751,96.3127 C175.1331,94.1237 174.5461,91.5017 174.4111,88.4467 C174.2791,85.3817 174.6911,82.0367 175.6181,78.3817 L184.9351,40.8957 C185.4341,38.9647 185.6321,37.2397 185.5781,35.7737 C185.5141,34.2987 185.2471,33.0457 184.7811,32.0127 C184.3011,30.9797 183.6651,30.1087 182.8601,29.4427 C182.0371,28.7557 181.1511,28.2177 180.1681,27.8367 C179.1791,27.4517 178.1321,27.1757 177.0231,27.0307 C175.9251,26.8917 174.8491,26.8117 173.7841,26.8117 C172.4791,26.8117 171.1441,26.9517 169.7431,27.2017 C168.3601,27.4687 166.9681,27.8057 165.5751,28.2477 C165.2041,28.3537 164.8621,28.4797 164.5081,28.6067 L164.5081,28.5987 C164.4991,28.6067 164.4851,28.6067 164.4851,28.6067 L164.4781,28.6067 C163.9381,28.8077 163.4791,28.9837 163.0761,29.1457 C161.7801,29.6927 160.8391,30.3197 160.4011,30.6297 C160.3221,30.7037 160.2301,30.7567 160.1551,30.8227 C160.1441,30.8227 160.1441,30.8307 160.1441,30.8307 C158.0731,32.3407 158.2431,30.9447 158.3831,30.3757 L158.4271,30.2227 C158.4271,30.2227 158.7461,28.9487 157.6791,28.2737 L157.6791,28.2567 C157.4111,28.0857 157.0571,27.9457 156.5841,27.8847 C156.2951,27.8367 155.9701,27.8537 155.6301,27.8887 L155.6121,27.8887 C155.5811,27.8887 155.5461,27.8967 155.5071,27.8967 C154.4251,28.0957 152.0531,29.2367 150.7521,29.8857 L149.8771,30.3407 L149.6711,30.4407 L146.5361,32.0347 L145.7491,32.4517 L143.2401,33.7247 C140.2631,35.3357 139.4321,36.3867 139.1291,36.8117 C139.0761,36.8627 139.0451,36.9157 139.0111,36.9817 C138.9941,37.0167 138.9891,37.0347 138.9841,37.0347 C138.9101,37.1827 138.8661,37.3537 138.8661,37.5287 C138.8661,37.8617 139.0021,38.1597 139.2341,38.3747 C139.3361,38.4607 139.6541,38.7117 140.2371,38.7147 C140.6971,38.7337 141.4101,38.6937 142.5571,38.5097 C142.6531,38.5097 142.7321,38.4927 142.8061,38.4757 C142.8201,38.4757 142.8381,38.4757 142.8381,38.4607 L142.9031,38.4607 C143.5681,38.3087 144.1551,38.6937 143.9231,39.8677 L143.6651,40.8747 L143.6601,40.8747 L142.3471,46.1927 L141.1911,50.8557 L137.7321,64.8257 C137.6011,65.3687 137.4311,65.8287 137.2601,66.2307 L137.2601,66.2337 C137.0241,66.8217 135.8891,68.9777 132.9521,69.3767 C131.2801,69.6117 130.6271,70.7377 130.6141,71.7357 C130.6451,72.1787 130.8291,72.8917 131.7041,73.3197 C131.7701,73.3337 131.8401,73.3637 131.9051,73.3777 C132.0591,73.4177 132.2381,73.4517 132.4401,73.4777 L132.4441,73.4777 C132.5051,73.4777 132.5841,73.4777 132.6451,73.4867 C135.1011,73.7017 140.2371,73.8417 140.8321,73.8417 L140.8321,73.8467 L147.6581,73.8467 C153.1251,73.7107 153.9441,72.1047 154.0621,71.5217 C154.2201,70.0197 152.9721,69.5737 152.5431,69.4507 C150.5031,68.9777 149.8201,67.9117 149.8201,67.9117 C149.5971,67.5837 149.4701,67.1597 149.4391,66.7257 C149.4081,66.2087 149.4831,65.4987 149.6841,64.7237 L150.8701,59.9787 L155.0601,43.0887 C155.0821,43.0577 155.0871,43.0057 155.1041,42.9227 L155.1651,42.6857 L155.1651,42.6727 C156.8111,36.1107 162.8701,34.1927 163.6281,33.9877 C165.0861,33.6147 166.5651,33.4227 168.0501,33.4227 C170.0851,33.4227 171.5791,33.9927 172.5191,35.1517 C173.4471,36.2897 173.6191,38.1457 173.0051,40.7077 L164.4461,75.1677 C163.2261,80.0797 162.8411,84.6017 163.2901,88.7147 C163.7461,92.8197 164.9411,96.3757 166.8901,99.3117 C168.8291,102.2847 171.4641,104.5827 174.8051,106.2207 C178.1321,107.8577 182.0591,108.6717 186.5991,108.6717 C189.8691,108.6717 192.7631,108.1727 195.2891,107.1877 C197.8071,106.1947 199.9251,104.9117 201.6451,103.3077 C203.3701,101.7077 204.6661,99.8727 205.5471,97.8237 C206.4431,95.7627 206.8871,93.6517 206.8871,91.4887 C206.8871,89.3167 206.5401,87.3397 205.8351,85.5617 C205.1481,83.7877 204.1881,82.2647 202.9551,80.9937" id="Fill-9" fill="#FFFFFF" sketch:type="MSShapeGroup"></path>
            <path d="M212.8965,28.7467 C212.6465,28.3537 212.1735,28.0117 211.3115,27.8847 C211.0225,27.8447 210.6895,27.8537 210.3655,27.8887 L210.3395,27.8887 C210.3045,27.8967 210.2655,27.8967 210.2305,27.9107 C209.1535,28.1037 206.7805,29.2417 205.4895,29.8937 L204.5915,30.3527 L204.3995,30.4407 L201.2695,32.0427 L200.4855,32.4517 L197.9675,33.7337 C194.9815,35.3447 194.1645,36.3867 193.8525,36.8157 C193.7955,36.8727 193.7685,36.9337 193.7385,36.9817 C193.7215,37.0167 193.7045,37.0347 193.6955,37.0427 L193.7045,37.0427 C193.6435,37.1967 193.5945,37.3587 193.5945,37.5417 C193.5945,37.8757 193.7385,38.1687 193.9615,38.3747 C194.0485,38.4607 194.3795,38.7147 194.9645,38.7247 C195.4165,38.7337 196.1415,38.7017 197.2715,38.5097 C197.3765,38.5097 197.4595,38.4927 197.5305,38.4837 C197.5395,38.4757 197.5565,38.4757 197.5695,38.4757 C197.5915,38.4607 197.6085,38.4607 197.6225,38.4607 C198.2915,38.3127 198.8825,38.7017 198.6435,39.8677 L198.3875,40.8747 L198.3875,40.8827 L197.0745,46.1927 L195.9175,50.8557 L192.4605,64.8257 C192.3295,65.3687 192.1635,65.8287 191.9795,66.2307 L191.9795,66.2337 C191.7375,66.8297 190.6175,68.9867 187.6705,69.3847 C186.0065,69.6117 185.3515,70.7427 185.3375,71.7537 C185.3595,72.1787 185.5425,72.8917 186.4315,73.3197 C186.4895,73.3437 186.5725,73.3637 186.6335,73.3897 C186.7835,73.4177 186.9705,73.4557 187.1675,73.4777 C187.2285,73.4777 187.3025,73.4867 187.3735,73.4867 C189.8295,73.7017 194.9645,73.8417 195.5425,73.8467 L195.5565,73.8467 L202.3855,73.8467 C207.8365,73.7197 208.6765,72.1047 208.7985,71.5287 C208.9525,70.0377 207.7045,69.5737 207.2715,69.4597 C205.2305,68.9777 204.5565,67.9117 204.5565,67.9117 C204.3335,67.5837 204.1985,67.1597 204.1585,66.7337 C204.1235,66.2087 204.2155,65.5097 204.4035,64.7237 L205.5845,59.9787 L209.7885,43.0977 C209.8005,43.0577 209.8235,43.0057 209.8325,42.9357 L213.0925,29.8597 C213.1235,29.6047 213.1635,29.1537 212.8965,28.7467" id="Fill-11" fill="#FFFFFF" sketch:type="MSShapeGroup"></path>
            <path d="M221.0977,32.3019 C221.0977,32.3019 221.9237,32.3489 222.5937,32.7219 C223.2327,33.1249 223.5737,33.6149 223.6617,33.7509 C223.6707,33.7559 223.6707,33.7769 223.6797,33.7859 C224.0307,34.4079 224.2697,35.0819 224.4457,35.9839 C224.5987,36.8899 224.7647,38.5889 224.9227,39.8419 L229.2657,69.6649 L229.2657,69.6699 L229.2927,69.8189 C229.4087,70.5409 230.1417,73.6789 233.6837,73.8109 C236.3227,73.9029 238.2797,71.8849 239.7937,69.7179 L258.2257,40.7739 C261.4607,35.7819 264.4857,31.3129 267.3097,27.9989 C270.1237,24.6799 272.7597,21.6989 275.1947,19.7069 C277.6407,17.7149 279.9047,16.3189 281.9927,15.5079 C284.0857,14.6989 285.9937,14.2959 287.7367,14.2959 C289.2987,14.2959 290.5707,14.4709 291.5837,14.8519 C292.5877,15.2239 293.4147,15.6879 294.0797,16.2609 C294.7537,16.8219 295.3007,17.4299 295.7477,18.0739 C296.2077,18.7259 296.6897,19.3349 297.1887,19.8989 C297.6917,20.4639 298.2697,20.9319 298.9357,21.3089 C299.5967,21.6769 300.4587,21.8689 301.5447,21.8689 C303.3447,21.8689 304.7527,21.3089 305.7517,20.1929 C306.7587,19.0719 307.2527,17.6979 307.2527,16.0379 C307.2527,14.5459 306.8377,13.2529 305.9757,12.1279 C305.1207,11.0119 304.0137,10.0749 302.6697,9.3129 C301.3267,8.5519 299.8417,7.9829 298.1987,7.6019 C296.5717,7.2029 294.9647,7.0029 293.3797,7.0029 C290.2637,7.0029 287.1497,7.5529 283.9847,8.6349 C280.8317,9.7299 277.6067,11.4849 274.3187,13.9539 C271.0307,16.4049 267.6557,19.6289 264.1707,23.5939 C260.6947,27.5559 257.1007,32.4119 253.3707,38.1819 L242.2587,55.2199 C239.6977,59.1809 239.0107,55.2119 238.9367,54.6819 L238.9327,54.6199 L236.6727,38.2739 C236.5197,37.1129 236.5237,36.1289 236.6907,35.3009 C236.8357,34.7099 237.0747,34.1799 237.4387,33.7249 C237.4837,33.6639 237.5347,33.5969 237.5967,33.5409 C237.6717,33.4629 237.7807,33.3489 237.9297,33.2169 C237.9997,33.1639 238.0567,33.1249 238.1177,33.0639 C238.1407,33.0559 238.1537,33.0289 238.1607,33.0199 C238.4937,32.7789 238.8877,32.5599 239.3177,32.3759 C239.8287,32.1879 240.4387,32.0789 241.1347,32.1539 C242.2027,32.2489 242.7967,32.3159 243.1567,32.3059 C243.1997,32.3019 243.2267,32.3019 243.2267,32.3019 C243.4667,32.3019 243.7087,32.2009 243.8687,32.0349 C243.8787,32.0349 243.8927,32.0269 243.8967,32.0129 C244.0627,31.8509 244.1637,31.6149 244.1637,31.3649 C244.1637,31.2169 244.1287,31.0939 244.0757,30.9659 C244.0357,30.8799 243.9847,30.7999 243.8927,30.7089 L243.8927,30.7039 C243.2887,30.1259 241.3697,29.6179 236.3837,29.6569 L227.9487,29.6569 C222.9667,29.6179 221.0387,30.1259 220.4447,30.7039 L220.4357,30.7089 C220.3477,30.7999 220.2997,30.8799 220.2457,30.9659 C220.1987,31.0939 220.1727,31.2169 220.1727,31.3649 C220.1727,31.8899 220.5887,32.3019 221.0977,32.3019" id="Fill-13" fill="#FFFFFF" sketch:type="MSShapeGroup"></path>
            <g id="Group-17">
                <mask id="mask-2" sketch:name="Clip 16" fill="white">
                    <use xlink:href="#path-1"></use>
                </mask>
                <g id="Clip-16"></g>
                <path d="M342.7539,64.107 C342.5179,63.614 342.2019,63.192 341.8129,62.865 C341.4229,62.527 340.9769,62.273 340.4599,62.089 C339.9309,61.923 339.3869,61.836 338.8409,61.836 C337.7189,61.836 336.8259,62.028 336.1659,62.443 C335.4859,62.865 334.9259,63.384 334.4929,63.998 C334.0599,64.62 333.6879,65.298 333.3689,66.021 C333.0649,66.734 332.7139,67.409 332.3259,68.025 C331.9319,68.653 331.4799,69.179 330.9119,69.582 C330.3519,69.99 329.6199,70.19 328.6879,70.19 C328.0489,70.19 327.4439,70.081 326.9049,69.867 C326.3499,69.633 325.9169,69.258 325.5669,68.693 C325.2249,68.161 325.0399,67.429 324.9829,66.541 C324.9139,65.652 325.0459,65.135 325.3959,63.784 L334.3839,27.679 L337.2379,16.226 C337.2519,16.204 337.2639,16.139 337.2729,16.069 L340.5389,3.005 C340.5859,2.737 340.6069,2.292 340.3419,1.885 C340.0789,1.491 339.6189,1.145 338.7429,1.022 C338.4729,0.978 338.1489,0.986 337.8029,1.026 C337.7929,1.026 337.7889,1.026 337.7849,1.035 C337.7499,1.035 337.7159,1.044 337.6799,1.044 C336.6069,1.233 334.2219,2.378 332.9289,3.022 L332.0449,3.478 L331.8429,3.583 L328.7189,5.181 L327.9169,5.593 L325.4209,6.875 C322.4349,8.478 321.6119,9.515 321.2979,9.948 C321.2549,10.005 321.2249,10.058 321.1889,10.115 C321.1619,10.15 321.1529,10.167 321.1529,10.167 L321.1529,10.176 C321.0779,10.33 321.0439,10.484 321.0439,10.671 C321.0439,11.003 321.1839,11.301 321.4069,11.511 C321.5029,11.599 321.8229,11.844 322.4149,11.844 C322.8739,11.88 323.5909,11.836 324.7299,11.647 C324.8139,11.638 324.9099,11.625 324.9829,11.616 C324.9969,11.616 325.0059,11.608 325.0199,11.608 L325.0109,11.608 C325.0399,11.599 325.0589,11.599 325.0759,11.599 C325.7459,11.445 326.3329,11.826 326.0869,13.009 L326.0869,12.995 L325.8339,14.006 L325.8339,14.01 L324.5279,19.322 L323.3639,23.992 L322.4629,27.679 L314.7179,58.96 C314.0689,61.617 313.9349,63.872 314.3239,65.849 C314.7129,67.815 315.5199,69.419 316.7389,70.719 C317.9479,72.029 319.5289,73.009 321.4379,73.653 C323.3509,74.296 325.5259,74.621 327.9389,74.621 C330.1279,74.621 332.1599,74.398 334.0079,73.964 C335.8659,73.527 337.4709,72.9 338.8179,72.126 C340.1589,71.329 341.2029,70.413 341.9709,69.328 C342.7289,68.27 343.1049,67.102 343.1049,65.789 C343.1049,65.171 342.9859,64.615 342.7539,64.107" id="Fill-15" fill="#FFFFFF" sketch:type="MSShapeGroup" mask="url(#mask-2)"></path>
            </g>
            <path d="M212.2149,18.6602 C215.9519,18.6602 219.0169,15.6222 219.0169,11.8612 C219.0169,8.1052 215.9519,5.0672 212.2149,5.0672 C208.4399,5.0672 205.4089,8.1052 205.4089,11.8612 C205.4089,15.6222 208.4399,18.6602 212.2149,18.6602" id="Fill-18" fill="#FFFFFF" sketch:type="MSShapeGroup"></path>
            <g id="Group-22">
                <mask id="mask-4" sketch:name="Clip 21" fill="white">
                    <use xlink:href="#path-3"></use>
                </mask>
                <g id="Clip-21"></g>
                <path d="M152.4766,92.3648 C149.0936,92.9718 137.0406,95.3328 134.6416,95.8188 C134.5806,95.8318 134.5106,95.8318 134.4366,95.8528 C134.3096,95.8748 134.2396,95.8978 134.2396,95.8978 C117.0126,99.2728 90.2276,103.0938 67.0996,100.1928 C67.0736,100.1828 67.0516,100.1828 67.0296,100.1828 C64.3896,99.8598 61.7986,99.4348 59.2766,98.9098 C58.0766,98.6698 56.8946,98.3758 55.7346,98.0598 C37.2156,93.2608 27.7776,83.5308 23.2466,73.0928 L23.2466,73.1008 C23.2246,73.0498 23.2116,73.0138 23.1886,72.9698 C22.4366,71.2538 21.8286,69.4808 21.3246,67.7238 C21.3246,67.7108 21.3246,67.6928 21.3156,67.6788 C21.2896,67.5838 21.2586,67.5048 21.2416,67.4088 C18.9436,59.2578 19.0746,51.5038 19.8356,45.6108 C20.1346,43.0678 20.6196,40.6068 21.2496,38.2208 C21.2986,38.0628 21.3376,37.9318 21.3766,37.7958 C21.8806,35.9138 22.2836,34.8588 22.2836,34.8588 C28.0616,18.1218 41.9716,6.3188 58.2256,6.3188 L58.3566,6.3188 C68.3036,6.4598 75.9826,10.4078 81.7046,17.2248 C81.7176,17.2378 81.7216,17.2508 81.7346,17.2598 C81.8096,17.3598 81.8886,17.4388 81.9546,17.5438 C82.1076,17.7278 82.3346,17.9688 82.6056,18.2218 C84.1646,19.7468 85.1756,19.5748 85.1756,19.5748 C85.5746,19.5748 85.9506,19.4788 86.2706,19.2818 C86.4146,19.2078 86.6206,19.0718 86.8046,18.8348 C87.0766,18.5248 87.2636,18.1438 87.3206,17.7018 C87.4136,17.3818 87.2856,16.6818 87.1546,16.1388 C87.1416,16.0588 87.1196,15.9818 87.0936,15.9028 C87.0896,15.8668 87.0896,15.8448 87.0846,15.8278 C87.0766,15.8198 87.0766,15.8108 87.0716,15.7978 L87.0676,15.7798 C87.0106,15.5788 86.9756,15.4518 86.9756,15.4428 L85.4736,9.9048 C85.0666,8.4648 84.6376,7.3968 84.1996,6.5998 C82.4006,3.6178 79.6376,4.8698 79.6376,4.8698 C78.6926,5.2948 77.9756,5.8288 77.7816,5.9688 C71.2366,2.3958 63.7286,0.3618 55.7476,0.3618 C54.7666,0.3618 53.7996,0.3908 52.8456,0.4568 L52.8406,0.4438 C52.5386,0.4658 52.2496,0.4878 51.9606,0.5228 C50.7126,0.6188 49.4836,0.7678 48.2486,0.9688 C47.9816,1.0128 47.7226,1.0568 47.4516,1.1048 C23.6356,4.8228 4.7676,23.5378 0.7656,47.3178 C0.3016,49.8538 -0.0004,52.4458 -0.0004,55.0798 C-0.0004,81.6998 24.4506,103.8698 56.8426,108.7848 L56.8426,108.7768 C69.9546,110.3758 87.1456,110.5278 109.1886,107.4338 L109.1626,107.4338 C117.8706,106.2198 125.1456,104.9808 131.1476,103.8168 L131.1916,103.8168 C133.1146,103.4418 134.9046,103.0728 136.5596,102.7218 C139.6856,102.0748 142.2766,101.4908 144.4346,100.9698 C147.2586,100.2978 149.3386,99.7408 150.8696,99.2958 C151.8156,99.0308 152.6046,98.7818 153.2696,98.5238 C153.2696,98.5238 153.2826,98.5238 153.2916,98.5108 C153.7826,98.3528 154.1976,98.1688 154.5616,98.0118 C154.6366,97.9688 154.7006,97.9378 154.7536,97.9158 C155.3576,97.6008 155.7656,97.3248 156.0276,97.1048 C156.0456,97.0968 156.0766,97.0708 156.0926,97.0668 C156.1546,97.0008 156.2336,96.9268 156.3086,96.8438 C156.3996,96.7728 156.4346,96.7198 156.4346,96.7198 L156.4266,96.7198 C156.6226,96.4888 156.8156,96.1808 156.9426,95.7888 C157.3286,94.4698 156.8256,93.6518 156.5266,93.3018 C155.9626,92.6758 154.7926,91.9618 152.4766,92.3648" id="Fill-20" fill="#FFFFFF" sketch:type="MSShapeGroup" mask="url(#mask-4)"></path>
            </g>
        </g>
    </g>
</svg>